<svg x="0px" y="0px" width="300px" height="300px" viewBox="-150 -150 300 300" overflow="scroll" xml:space="preserve">
  <path fill="#ddd" stroke="#444" stroke-width="1" stroke-miterlimit="10"
    d="M130.8,0 130.809585,-0.419838 131.368258,-0.547585 131.973642,-0.698771 132.625005,-0.875307 133.321557,-1.079082 134.062451,-1.311961 134.846785,-1.57579 135.673598,-1.872387 136.541877,-2.203545 137.450553,-2.571029 138.398505,-2.976574 139.384555,-3.421886 140.407478,-3.908637 141.465993,-4.438467 142.558771,-5.012979 143.684434,-5.633743 144.841553,-6.302288 146.028652,-7.020106 147.244209,-7.78865 147.552362,-7.988877 147.707061,-8.09022 147.7458,-8.115684 147.765179,-8.128435 147.774871,-8.134816 147.776181,-8.13635 147.480064,-12.39479 147.478553,-12.396129 147.468072,-12.401106 147.447114,-12.411053 147.405224,-12.43091 147.237987,-12.509866 146.905088,-12.665518 145.59486,-13.258426 144.319836,-13.805037 143.081325,-14.306998 141.880579,-14.765991 140.718803,-15.183729 139.597144,-15.561956 138.516698,-15.902446 137.478505,-16.206998 136.483548,-16.47744 135.532755,-16.715623 134.626999,-16.92342 133.767093,-17.102729 132.953793,-17.255463 132.187798,-17.383559 131.469746,-17.488966 130.800218,-17.573652 130.179736,-17.639596 129.608759,-17.688791 129.541159,-18.103261 128.69799,-23.355242 128.632456,-23.770044 129.159341,-23.995493 129.728001,-24.252345 130.337374,-24.54235 130.986347,-24.867223 131.673753,-25.228652 132.398373,-25.62829 133.15894,-26.067753 133.954135,-26.548627 134.782591,-27.072456 135.642896,-27.640747 136.533587,-28.254968 137.453158,-28.916547 138.400057,-29.626867 139.372691,-30.38727 140.369422,-31.199052 141.388572,-32.063465 142.428423,-32.981713 143.487217,-33.954951 143.754665,-34.206984 143.888783,-34.334321 143.922353,-34.366293 143.939144,-34.3823 143.947541,-34.390308 143.948556,-34.392052 142.896823,-38.529183 142.895098,-38.53023 142.883896,-38.533256 142.861499,-38.539301 142.816736,-38.551359 142.638089,-38.599186 142.282747,-38.692894 140.887707,-39.042324 139.535573,-39.352486 138.227336,-39.625235 136.963931,-39.862451 135.746234,-40.066033 134.575066,-40.237902 133.451187,-40.379999 132.375297,-40.49428 131.34804,-40.58272 130.369998,-40.647304 129.441694,-40.690033 128.56359,-40.712917 127.736089,-40.717977 126.959531,-40.707241 126.234198,-40.682741 125.560308,-40.646517 124.938022,-40.60061 124.367437,-40.547062 124.226917,-40.942802 122.459521,-45.959827 122.320974,-46.356262 122.799136,-46.672166 123.312795,-47.026429 123.860593,-47.420581 124.441129,-47.856112 125.052952,-48.334474 125.694569,-48.857075 126.364444,-49.425281 127.060996,-50.040414 127.782606,-50.703751 128.527613,-51.416523 129.294316,-52.179913 130.08098,-52.995055 130.88583,-53.863036 131.707058,-54.784889 132.542822,-55.761599 133.391247,-56.794097 134.250427,-57.88326 135.118427,-59.029913 135.336576,-59.325651 135.445801,-59.474888 135.473123,-59.512341 135.486786,-59.531088 135.493618,-59.540468 135.494305,-59.542365 133.720761,-63.425216 133.718877,-63.425939 133.707314,-63.426916 133.684198,-63.428864 133.638002,-63.432736 133.453686,-63.447895 133.087322,-63.476648 131.652308,-63.571369 130.266521,-63.635114 128.930607,-63.669885 127.645149,-63.677699 126.41067,-63.660581 125.227635,-63.620568 124.096444,-63.559705 123.017439,-63.480042 121.990899,-63.383637 121.017043,-63.272547 120.096027,-63.148834 119.227949,-63.01456 118.412842,-62.871782 117.650681,-62.722558 116.941378,-62.568939 116.284787,-62.412969 115.680698,-62.256687 115.128844,-62.102117 114.91992,-62.466407 112.285102,-67.087225 112.077996,-67.452551 112.492066,-67.848758 112.934214,-68.289045 113.402831,-68.774676 113.89627,-69.306866 114.412846,-69.886786 114.950838,-70.515553 115.50849,-71.194239 116.084013,-71.923861 116.675583,-72.705386 117.281346,-73.53973 117.89942,-74.427752 118.527893,-75.370259 119.164825,-76.368002 119.808252,-77.421677 120.456187,-78.531922 121.106617,-79.699319 121.757513,-80.924392 122.406821,-82.207605 122.568658,-82.537542 122.64948,-82.703884 122.669675,-82.745613 122.679771,-82.766499 122.684819,-82.776947 122.685157,-82.778937 120.246804,-86.282711 120.244821,-86.283085 120.23327,-86.281982 120.210177,-86.279772 120.164032,-86.275332 119.979971,-86.257337 119.61436,-86.220211 118.185495,-86.057178 116.810596,-85.872457 115.489942,-85.668133 114.223746,-85.446293 113.012163,-85.209026 111.855284,-84.958417 110.75314,-84.69655 109.705699,-84.425504 108.71287,-84.147352 107.774499,-83.864159 106.890375,-83.57798 106.060222,-83.290862 105.283708,-83.004836 104.560441,-82.721921 103.889967,-82.44412 103.271776,-82.173418 102.705301,-81.911782 102.189915,-81.66116 101.919302,-81.98229 98.501748,-86.058385 98.232738,-86.380859 98.569409,-86.844634 98.925835,-87.356794 99.300208,-87.918296 99.690691,-88.530041 100.095417,-89.192879 100.512492,-89.907604 100.939999,-90.674956 101.375994,-91.495616 101.81851,-92.370211 102.265561,-93.299309 102.71514,-94.283421 103.165221,-95.323 103.613764,-96.418438 104.05871,-97.570068 104.49799,-98.778164 104.929521,-100.04294 105.351211,-101.364547 105.760958,-102.743077 105.861282,-103.096608 105.911104,-103.274709 105.923523,-103.319373 105.929728,-103.341726 105.932828,-103.352908 105.932806,-103.354926 102.908015,-106.367008 102.905997,-106.367022 102.894829,-106.363874 102.872502,-106.357576 102.827891,-106.344969 102.650001,-106.294397 102.296895,-106.192586 100.920103,-105.777039 99.600283,-105.349789 98.337335,-104.912936 97.131099,-104.468574 95.981352,-104.018783 94.887813,-103.565633 93.850138,-103.111178 92.867927,-102.65746 91.940719,-102.206502 91.067995,-101.760307 90.249178,-101.320861 89.483633,-100.890128 88.77067,-100.470046 88.109542,-100.062533 87.499446,-99.669479 86.939526,-99.292745 86.428871,-98.934166 85.966518,-98.595545 85.642914,-98.863195 81.552466,-102.263558 81.2302,-102.532816 81.47865,-103.049253 81.737898,-103.616825 82.005995,-104.236149 82.280971,-104.907787 82.560839,-105.632239 82.843593,-106.409951 83.127213,-107.241304 83.409667,-108.126626 83.688907,-109.06618 83.962877,-110.060172 84.22951,-111.108745 84.486735,-112.211982 84.732471,-113.369906 84.964635,-114.582477 85.181142,-115.849595 85.379904,-117.171098 85.558835,-118.546762 85.715851,-119.976302 85.751437,-120.342065 85.768657,-120.5262 85.772902,-120.572364 85.775016,-120.595466 85.77607,-120.607021 85.775687,-120.609002 82.261678,-123.032582 82.25969,-123.032236 82.249263,-123.027144 82.22842,-123.016961 82.186777,-122.99659 82.020776,-122.915068 81.691524,-122.751843 80.411055,-122.097138 79.188734,-121.441091 78.024085,-120.785751 76.916578,-120.133148 75.865621,-119.48529 74.870569,-118.844163 73.930716,-118.211729 73.045304,-117.589921 72.213519,-116.98065 71.434491,-116.385795 70.707298,-115.807206 70.030966,-115.246701 69.40447,-114.706067 68.82673,-114.187053 68.296621,-113.691379 67.812968,-113.220721 67.374546,-112.776724 66.980086,-112.360989 66.613892,-112.566555 61.982021,-115.181896 61.616856,-115.389284 61.7691,-115.941784 61.922838,-116.546525 62.076042,-117.203767 62.226673,-117.91371 62.372687,-118.676493 62.512032,-119.492194 62.642651,-120.36083 62.762485,-121.282358 62.869473,-122.256673 62.961556,-123.28361 63.036675,-124.362941 63.092775,-125.494378 63.127807,-126.677572 63.139727,-127.912111 63.126502,-129.197525 63.086106,-130.533281 63.016528,-131.918787 62.915766,-133.353389 62.885471,-133.719629 62.869536,-133.903879 62.865469,-133.95006 62.863424,-133.973167 62.862398,-133.984725 62.861668,-133.986607 58.971383,-135.743788 58.969489,-135.743092 58.960139,-135.736221 58.941449,-135.722479 58.904112,-135.695 58.755336,-135.585147 58.460519,-135.365756 57.317531,-134.492936 56.231994,-133.629177 55.203078,-132.776413 54.229895,-131.936544 53.311507,-131.111442 52.446923,-130.302945 51.6351,-129.512856 50.874945,-128.742946 50.165316,-127.994945 49.505023,-127.270549 48.892828,-126.571412 48.327447,-125.899151 47.807552,-125.255339 47.331771,-124.641508 46.898687,-124.059144 46.506845,-123.509691 46.154748,-122.994545 45.840859,-122.515058 45.443845,-122.651934 40.419423,-124.398192 40.023095,-124.537045 40.07424,-125.10785 40.117527,-125.730324 40.150914,-126.40436 40.172359,-127.12979 40.179827,-127.906386 40.171283,-128.733859 40.144701,-129.611859 40.098064,-130.539975 40.029363,-131.517736 39.936599,-132.544612 39.817789,-133.62001 39.670962,-134.743282 39.494163,-135.913716 39.285457,-137.130544 39.042924,-138.392939 38.764669,-139.700017 38.448817,-141.050833 38.093517,-142.444389 37.998314,-142.799334 37.949736,-142.977778 37.937489,-143.02249 37.93135,-143.044861 37.928277,-143.05605 37.927223,-143.057771 33.7857,-144.092076 33.78396,-144.091054 33.775987,-144.082623 33.760051,-144.065765 33.728221,-144.032061 33.60145,-143.897408 33.350546,-143.628901 32.381773,-142.566019 31.467912,-141.522312 30.607797,-140.499532 29.800219,-139.499392 29.043917,-138.523565 28.33759,-137.573683 27.679889,-136.651335 27.069423,-135.758066 26.504759,-134.895376 25.984423,-134.064722 25.506901,-133.267509 25.070643,-132.505099 24.674061,-131.778803 24.315529,-131.089881 23.99339,-130.439546 23.705954,-129.828957 23.451498,-129.259221 23.22827,-128.731392 22.813195,-128.795179 17.557711,-129.616229 17.14296,-129.682083 17.091361,-130.252848 17.022806,-130.873047 16.935302,-131.542212 16.826872,-132.259814 16.695553,-133.025263 16.539396,-133.837913 16.356469,-134.697056 16.144859,-135.60193 15.902676,-136.551711 15.628048,-137.54552 15.319127,-138.582423 14.974091,-139.661426 14.591145,-140.781482 14.168519,-141.941489 13.704475,-143.140291 13.197304,-144.376679 12.64533,-145.64939 12.046911,-146.957109 11.889859,-147.289351 11.8102,-147.456253 11.790166,-147.49806 11.780131,-147.518975 11.77511,-147.529436 11.773765,-147.530941 7.514116,-147.809127 7.512587,-147.80781 7.506248,-147.798091 7.493578,-147.778659 7.468277,-147.739813 7.367587,-147.584689 7.168658,-147.275695 6.405239,-146.056913 5.692425,-144.866803 5.028757,-143.70688 4.412739,-142.578613 3.842832,-141.483426 3.317464,-140.422689 2.835024,-139.397727 2.393868,-138.40981 1.992317,-137.46016 1.628662,-136.549944 1.301162,-135.680279 1.008049,-134.852224 0.747524,-134.066787 0.517766,-133.324918 0.316926,-132.627515 0.143134,-131.975414 -0.005502,-131.369399 -0.130896,-130.810193 -0.55069,-130.798841 -5.86832,-130.668293 -6.288165,-130.659032 -6.440848,-131.211411 -6.619043,-131.809403 -6.824624,-132.45219 -7.059444,-133.138898 -7.325329,-133.868598 -7.624081,-134.640305 -7.957475,-135.452979 -8.327255,-136.305527 -8.735136,-137.196801 -9.182803,-138.125603 -9.671905,-139.090682 -10.204059,-140.090736 -10.780845,-141.124415 -11.403806,-142.190318 -12.074448,-143.286996 -12.794233,-144.412956 -13.564588,-145.566655 -14.386893,-146.746507 -14.600745,-147.045367 -14.708926,-147.195363 -14.736102,-147.232921 -14.74971,-147.251708 -14.756519,-147.261104 -14.758111,-147.262345 -18.998978,-146.775471 -19.000247,-146.773902 -19.004749,-146.763208 -19.013745,-146.741825 -19.031703,-146.699086 -19.103077,-146.528475 -19.243636,-146.188928 -19.777164,-144.853418 -20.266021,-143.555155 -20.711911,-142.29537 -21.11657,-141.075241 -21.481765,-139.895893 -21.809289,-138.758395 -22.100961,-137.663761 -22.358629,-136.612949 -22.58416,-135.60686 -22.779445,-134.646339 -22.946397,-133.732172 -23.086945,-132.865087 -23.203038,-132.045754 -23.296638,-131.274783 -23.369724,-130.552725 -23.424286,-129.880072 -23.462326,-129.257256 -23.485854,-128.684647 -23.896875,-128.59852 -29.105738,-127.520571 -29.517183,-127.436493 -29.766043,-127.952732 -30.04815,-128.509296 -30.365201,-129.105045 -30.718864,-129.738789 -31.110769,-130.409287 -31.542514,-131.115248 -32.015658,-131.855332 -32.531724,-132.628152 -33.092194,-133.432273 -33.69851,-134.266215 -34.352074,-135.128452 -35.054242,-136.017415 -35.80633,-136.931493 -36.609604,-137.869033 -37.465287,-138.82834 -38.374554,-139.807682 -39.33853,-140.805288 -40.358291,-141.819351 -40.622069,-142.075224 -40.755294,-142.203493 -40.78874,-142.235595 -40.805484,-142.25165 -40.813861,-142.25968 -40.815649,-142.260616 -44.901429,-141.02433 -44.902397,-141.02256 -44.904918,-141.011233 -44.909951,-140.988588 -44.919989,-140.943329 -44.959752,-140.762716 -45.037424,-140.403528 -45.323914,-138.994215 -45.5731,-137.629527 -45.786881,-136.310371 -45.967175,-135.037595 -46.11592,-133.811991 -46.235072,-132.634292 -46.326603,-131.505169 -46.3925,-130.425235 -46.434763,-129.395045 -46.455403,-128.41509 -46.45644,-127.485804 -46.439906,-126.607557 -46.407835,-125.780662 -46.362269,-125.005368 -46.305252,-124.281864 -46.238831,-123.610278 -46.165051,-122.990679 -46.085958,-122.423071 -46.474994,-122.264937 -51.407674,-120.274233 -51.797494,-120.118039 -52.134533,-120.581547 -52.511484,-121.078794 -52.929816,-121.608358 -53.390955,-122.168768 -53.896284,-122.758514 -54.447145,-123.376039 -55.044832,-124.019746 -55.690597,-124.688 -56.385641,-125.379122 -57.13112,-126.0914 -57.928139,-126.823083 -58.777754,-127.572383 -59.68097,-128.337481 -60.638739,-129.116523 -61.651962,-129.907626 -62.721485,-130.708874 -63.848098,-131.518323 -65.032539,-132.334005 -65.337766,-132.538666 -65.491754,-132.641086 -65.530395,-132.666699 -65.549736,-132.679507 -65.559412,-132.685912 -65.561338,-132.686514 -69.360711,-130.740552 -69.361348,-130.738637 -69.361805,-130.727042 -69.362714,-130.703862 -69.36451,-130.657538 -69.371384,-130.472728 -69.383672,-130.105443 -69.413915,-128.667624 -69.415423,-127.280373 -69.390224,-125.944243 -69.340358,-124.659729 -69.267872,-123.427262 -69.174823,-122.247213 -69.06327,-121.119892 -68.935279,-120.045547 -68.792915,-119.024366 -68.638245,-118.056474 -68.473336,-117.141937 -68.30025,-116.280756 -68.121047,-115.472876 -67.937779,-114.718177 -67.752491,-114.016481 -67.567221,-113.367548 -67.383993,-112.77108 -67.204821,-112.226716 -67.55937,-112.001659 -72.057325,-109.162182 -72.412991,-108.938893 -72.827376,-109.334771 -73.287057,-109.756721 -73.793223,-110.203078 -74.347016,-110.672143 -74.949527,-111.162181 -75.601799,-111.671422 -76.30482,-112.198064 -77.059528,-112.740272 -77.866807,-113.296183 -78.727488,-113.863904 -79.642345,-114.441515 -80.6121,-115.027069 -81.637414,-115.618596 -82.718895,-116.214103 -83.857092,-116.811574 -85.052495,-117.408975 -86.305536,-118.004252 -87.616589,-118.595335 -87.953454,-118.742206 -88.123255,-118.815485 -88.165848,-118.833787 -88.187166,-118.842936 -88.19783,-118.847509 -88.199833,-118.847758 -91.590682,-116.254664 -91.590967,-116.252666 -91.589347,-116.241176 -91.586103,-116.218206 -91.579598,-116.172306 -91.553363,-115.989238 -91.499871,-115.625662 -91.272897,-114.205549 -91.026677,-112.840322 -90.763308,-111.530165 -90.484884,-110.275197 -90.193498,-109.075479 -89.891238,-107.931008 -89.580187,-106.841722 -89.262421,-105.807497 -88.940005,-104.828146 -88.614998,-103.903426 -88.289441,-103.033031 -87.965368,-102.216596 -87.644791,-101.453697 -87.329712,-100.74385 -87.02211,-100.086515 -86.723945,-99.481092 -86.437158,-98.926925 -86.163666,-98.423302 -86.472331,-98.138555 -90.390994,-94.541568 -90.701075,-94.258362 -91.179487,-94.573887 -91.707123,-94.906976 -92.284855,-95.25578 -92.913503,-95.618424 -93.593832,-95.993004 -94.326549,-96.377594 -95.112308,-96.770243 -95.951702,-97.16898 -96.84527,-97.571812 -97.79349,-97.976729 -98.796782,-98.381703 -99.855506,-98.784691 -100.969965,-99.183635 -102.140398,-99.576465 -103.366986,-99.961102 -104.649848,-100.335455 -105.989044,-100.697426 -107.384569,-101.044913 -107.742245,-101.129275 -107.922402,-101.171056 -107.967579,-101.181459 -107.990187,-101.186654 -108.001497,-101.18925 -108.003512,-101.189137 -110.876854,-98.032256 -110.876778,-98.030239 -110.873132,-98.019223 -110.865838,-97.997202 -110.851242,-97.953201 -110.792741,-97.777759 -110.67519,-97.429577 -110.198292,-96.072814 -109.712258,-94.773491 -109.219184,-93.531415 -108.721151,-92.346329 -108.22023,-91.21792 -107.718474,-90.145812 -107.217923,-89.129572 -106.720595,-88.168706 -106.228491,-87.262664 -105.743591,-86.410837 -105.267852,-85.61256 -104.803206,-84.867111 -104.351561,-84.173712 -103.914797,-83.531533 -103.494766,-82.939686 -103.093291,-82.397232 -102.712162,-81.903178 -102.353139,-81.456483 -102.606001,-81.121197 -105.819423,-76.882311 -106.073952,-76.548289 -106.601015,-76.773319 -107.179646,-77.006842 -107.810376,-77.246883 -108.493674,-77.49145 -109.229953,-77.738533 -110.019567,-77.98611 -110.862808,-78.232147 -111.75991,-78.474596 -112.711047,-78.711402 -113.716329,-78.940501 -114.775808,-79.159822 -115.889475,-79.367291 -117.057258,-79.560829 -118.279024,-79.738358 -119.55458,-79.897798 -120.883669,-80.037071 -122.265976,-80.154103 -123.701121,-80.246825 -124.068112,-80.265965 -124.252834,-80.274907 -124.299142,-80.277076 -124.322315,-80.278151 -124.333907,-80.278686 -124.335869,-80.278214 -126.599353,-76.65901 -126.598918,-76.65704 -126.593363,-76.646852 -126.582255,-76.626487 -126.560037,-76.585799 -126.471149,-76.423623 -126.293317,-76.102025 -125.581823,-74.852219 -124.871597,-73.660562 -124.164665,-72.526488 -123.463031,-71.449375 -122.768675,-70.428543 -122.083551,-69.463256 -121.409586,-68.552724 -120.748681,-67.6961 -120.102706,-66.892487 -119.473499,-66.140932 -118.862867,-65.44043 -118.272583,-64.789926 -117.704385,-64.188316 -117.159974,-63.634443 -116.641015,-63.127107 -116.149133,-62.665056 -115.685913,-62.246996 -115.252899,-61.871585 -115.441829,-61.496537 -117.846728,-56.751993 -118.037524,-56.377891 -118.596298,-56.505194 -119.207328,-56.631646 -119.870782,-56.755208 -120.586768,-56.873837 -121.355334,-56.985481 -122.176465,-57.088089 -123.050086,-57.179605 -123.976063,-57.257975 -124.954197,-57.321143 -125.984231,-57.36706 -127.065846,-57.393679 -128.19866,-57.398961 -129.382234,-57.380874 -130.616065,-57.337395 -131.899591,-57.266513 -133.23219,-57.166229 -134.613179,-57.03456 -136.041816,-56.869537 -136.406328,-56.822841 -136.589678,-56.798656 -136.635629,-56.792521 -136.658622,-56.789441 -136.670123,-56.787898 -136.671969,-56.787084 -138.252844,-52.821881 -138.252064,-52.82002 -138.24478,-52.810988 -138.230213,-52.792933 -138.201087,-52.756867 -138.08467,-52.613168 -137.852273,-52.328492 -136.929051,-51.225813 -136.017461,-50.180122 -135.119393,-49.190501 -134.236708,-48.255978 -133.371234,-47.375533 -132.524761,-46.548093 -131.699046,-45.772534 -130.895806,-45.047687 -130.116721,-44.372331 -129.36343,-43.745203 -128.637532,-43.164991 -127.940582,-42.63034 -127.274093,-42.139854 -126.639534,-41.692091 -126.038326,-41.285571 -125.471847,-40.918775 -124.941423,-40.590144 -124.448335,-40.298083 -124.567262,-39.895328 -126.086342,-34.797619 -126.207274,-34.395461 -126.779799,-34.420946 -127.403588,-34.436262 -128.078443,-34.439374 -128.804105,-34.428252 -129.580254,-34.40087 -130.40651,-34.35521 -131.282434,-34.289264 -132.207523,-34.201034 -133.181217,-34.088535 -134.202897,-33.949794 -135.271882,-33.782856 -136.387435,-33.585781 -137.548759,-33.35665 -138.754998,-33.09356 -140.005241,-32.794635 -141.298518,-32.458018 -142.633804,-32.08188 -144.010016,-31.664416 -144.360332,-31.553384 -144.536417,-31.496849 -144.580535,-31.482609 -144.602608,-31.475472 -144.613648,-31.4719 -144.61532,-31.47077 -145.462775,-27.287013 -145.461675,-27.285322 -145.452895,-27.277735 -145.435339,-27.262571 -145.400241,-27.232285 -145.260037,-27.111683 -144.980543,-26.873078 -143.875267,-25.952967 -142.791611,-25.086851 -141.731272,-24.27349 -140.695907,-23.511595 -139.687131,-22.799836 -138.706516,-22.136836 -137.755589,-21.521178 -136.835831,-20.951403 -135.948677,-20.426012 -135.095514,-19.943467 -134.27768,-19.502193 -133.496465,-19.10058 -132.753108,-18.736982 -132.048795,-18.40972 -131.384662,-18.117083 -130.761792,-17.85733 -130.181213,-17.628691 -129.6439,-17.429368 -129.689001,-17.01185 -130.273438,-11.724822 -130.320618,-11.307533 -130.888493,-11.23038 -131.504992,-11.134068 -132.169557,-11.01663 -132.881572,-10.876115 -133.640359,-10.710586 -134.445184,-10.518126 -135.295255,-10.296838 -136.189724,-10.044845 -137.127683,-9.760294 -138.108171,-9.441355 -139.130169,-9.086225 -140.192606,-8.693127 -141.294353,-8.260315 -142.434232,-7.786071 -143.611008,-7.268711 -144.823396,-6.70658 -146.070061,-6.098062 -147.349616,-5.441574 -147.674477,-5.269775 -147.837637,-5.182708 -147.878503,-5.160819 -147.898947,-5.149856 -147.909172,-5.14437 -147.910615,-5.142959 -147.997413,-0.875118 -147.996029,-0.87365 -147.986035,-0.867753 -147.966054,-0.855968 -147.926112,-0.832435 -147.766626,-0.738806 -147.449019,-0.553941 -146.197214,0.154029 -144.976321,0.812731 -143.787791,1.423691 -142.633023,1.98847 -141.513369,2.508667 -140.43013,2.985917 -139.384555,3.421886 -138.377841,3.818276 -137.411131,4.176816 -136.485517,4.499268 -135.602034,4.787421 -134.761663,5.043088 -133.965328,5.268112 -133.213899,5.464355 -132.508186,5.633704 -131.848945,5.778064 -131.236872,5.899363 -130.672603,5.999541 -130.642428,6.418403 -130.273438,11.724822 -130.24535,12.143828 -130.790322,12.32114 -131.379717,12.525984 -132.012634,12.760197 -132.688115,13.02559 -133.405152,13.323945 -134.162678,13.657019 -134.959576,14.026537 -135.794675,14.434194 -136.666753,14.881652 -137.574535,15.370538 -138.516698,15.902446 -139.491871,16.478931 -140.498631,17.101512 -141.535512,17.771668 -142.600998,18.490836 -143.693531,19.260413 -144.811506,20.081753 -145.953278,20.956164 -146.242242,21.183208 -146.387234,21.29801 -146.423534,21.326844 -146.441693,21.341281 -146.450774,21.348505 -146.451941,21.35015 -145.775292,25.564904 -145.773668,25.566101 -145.762782,25.570119 -145.741017,25.578147 -145.697515,25.594169 -145.523875,25.657817 -145.178363,25.783 -143.820261,26.256074 -142.501373,26.686192 -141.222852,27.075113 -139.985797,27.424624 -138.791252,27.73654 -137.640204,28.0127 -136.533587,28.254968 -135.472273,28.465232 -134.457079,28.645398 -133.488763,28.797393 -132.568027,28.923163 -131.695509,29.024668 -130.871792,29.103884 -130.097398,29.162801 -129.372789,29.203418 -128.698365,29.227747 -128.074469,29.237806 -127.501381,29.23562 -127.396901,29.642363 -126.086342,34.797619 -125.983889,35.204877 -126.488444,35.476648 -127.03179,35.783441 -127.612715,36.126902 -128.229954,36.508641 -128.882194,36.930234 -129.568074,37.393216 -130.286186,37.899088 -131.035074,38.449306 -131.81324,39.045288 -132.61914,39.688409 -133.451187,40.379999 -134.307752,41.121343 -135.187168,41.913683 -136.087724,42.758211 -137.007675,43.656072 -137.945237,44.608361 -138.89859,45.616124 -139.865881,46.680354 -140.109661,46.955346 -140.231824,47.094192 -140.262393,47.129045 -140.277681,47.146492 -140.285327,47.155221 -140.286182,47.157049 -138.867833,51.183249 -138.866021,51.184137 -138.854593,51.186147 -138.831745,51.190159 -138.786081,51.198156 -138.603866,51.229776 -138.241554,51.291255 -136.820808,51.514228 -135.446314,51.701937 -134.118894,51.856319 -132.839312,51.979328 -131.608269,52.072937 -130.426409,52.139132 -129.294316,52.179913 -128.212514,52.197292 -127.181465,52.193293 -126.201571,52.169946 -125.273174,52.129291 -124.396553,52.073371 -123.57193,52.004234 -122.79946,51.92393 -122.079243,51.83451 -121.411314,51.738025 -120.795648,51.636522 -120.23216,51.532043 -120.056732,51.913593 -117.846728,56.751993 -117.673203,57.134413 -118.121122,57.491907 -118.600957,57.890788 -119.111219,58.332458 -119.650376,58.818275 -120.216856,59.349554 -120.809045,59.927565 -121.42529,60.553531 -122.063898,61.228626 -122.723142,61.953977 -123.401257,62.730662 -124.096444,63.559705 -124.806872,64.442082 -125.530677,65.378714 -126.265965,66.370471 -127.010813,67.418166 -127.76327,68.52256 -128.521359,69.684355 -129.28308,70.904199 -129.47384,71.2183 -129.569248,71.376728 -129.593103,71.416479 -129.60503,71.436376 -129.610994,71.446329 -129.611509,71.44828 -127.497048,75.156522 -127.495107,75.157072 -127.483503,75.157009 -127.460306,75.156877 -127.413948,75.156593 -127.229015,75.155169 -126.861548,75.150966 -125.42382,75.116671 -124.037899,75.055939 -122.704245,74.97082 -121.423262,74.863374 -120.195288,74.735667 -119.020601,74.589769 -117.89942,74.427752 -116.8319,74.251689 -115.818134,74.063653 -114.858156,73.865714 -113.951938,73.659941 -113.09939,73.448392 -112.300363,73.233124 -111.554647,73.016181 -110.86197,72.799599 -110.222003,72.585401 -109.634355,72.375597 -109.098578,72.172183 -108.857841,72.516277 -105.819423,76.882311 -105.580403,77.227601 -105.957291,77.65933 -106.358191,78.137478 -106.78139,78.66316 -107.225137,79.23744 -107.68765,79.861331 -108.167114,80.535792 -108.661685,81.261733 -109.169488,82.040007 -109.688621,82.871414 -110.217156,83.756699 -110.75314,84.69655 -111.294596,85.691599 -111.839527,86.742419 -112.385914,87.849529 -112.931718,89.013385 -113.474886,90.234387 -114.013346,91.512873 -114.545014,92.849124 -114.676624,93.19224 -114.74221,93.365157 -114.758584,93.408529 -114.766767,93.430235 -114.770857,93.441094 -114.771015,93.443106 -112.028403,96.714202 -112.026394,96.714397 -112.014989,96.712263 -111.992187,96.707992 -111.946625,96.699434 -111.764919,96.665012 -111.404108,96.595263 -109.995609,96.304803 -108.642803,95.997581 -107.345781,95.675697 -106.104568,95.341249 -104.919131,94.996332 -103.789374,94.64303 -102.71514,94.283421 -101.696212,93.919575 -100.732313,93.553546 -99.823106,93.187378 -98.968193,92.823099 -98.16712,92.462722 -97.419371,92.108242 -96.724375,91.761633 -96.081502,91.424849 -95.490066,91.099822 -94.949324,90.788462 -94.458478,90.492649 -94.160169,90.788229 -90.390994,94.541568 -90.094161,94.83863 -90.387905,95.330717 -90.696986,95.872765 -91.01952,96.465565 -91.353594,97.10985 -91.697274,97.806299 -92.048603,98.555533 -92.405604,99.358117 -92.76628,100.214555 -93.128617,101.125296 -93.490584,102.090728 -93.850138,103.111178 -94.205221,104.186917 -94.553763,105.318152 -94.893687,106.50503 -95.222905,107.74764 -95.539326,109.046006 -95.84085,110.400093 -96.125377,111.809803 -96.193607,112.170904 -96.227263,112.352754 -96.235629,112.398351 -96.239805,112.421171 -96.241891,112.432585 -96.241687,112.434593 -92.959073,115.163409 -92.957062,115.163242 -92.94622,115.159106 -92.924548,115.150832 -92.881246,115.134276 -92.708606,115.067962 -92.366048,114.934909 -91.032047,114.39762 -89.755839,113.853782 -88.537135,113.305478 -87.375587,112.754779 -86.270788,112.203736 -85.22227,111.654386 -84.22951,111.108745 -83.291924,110.568808 -82.408873,110.036551 -81.579659,109.513922 -80.803529,109.002847 -80.079677,108.505225 -79.40724,108.022925 -78.785303,107.557789 -78.212896,107.111629 -77.689,106.686221 -77.212544,106.28331 -76.782405,105.904608 -76.436112,106.142172 -72.057325,109.162182 -71.71222,109.401468 -71.913377,109.938097 -72.120705,110.526623 -72.332207,111.167486 -72.545871,111.861068 -72.759672,112.607692 -72.971574,113.407618 -73.179531,114.261049 -73.381488,115.168125 -73.575383,116.128928 -73.759149,117.143476 -73.930716,118.211729 -74.088012,119.333582 -74.228963,120.508872 -74.351499,121.737373 -74.45355,123.018797 -74.533053,124.352797 -74.587951,125.738962 -74.616192,127.176822 -74.618847,127.544303 -74.619493,127.72924 -74.619582,127.775599 -74.619616,127.798797 -74.619631,127.8104 -74.619072,127.812339 -70.901961,129.911169 -70.900013,129.910646 -70.890084,129.90464 -70.870237,129.892629 -70.830588,129.868608 -70.672563,129.772534 -70.359267,129.580452 -69.142641,128.813603 -67.984048,128.050629 -66.882832,127.293529 -65.838282,126.544276 -64.84963,125.80482 -63.916053,125.077078 -63.036675,124.362941 -62.210566,123.664269 -61.436743,122.982891 -60.714174,122.320599 -60.041773,121.679154 -59.418408,121.060279 -58.842895,120.465662 -58.314005,119.896951 -57.830463,119.355752 -57.390946,118.843636 -56.994089,118.362126 -56.638483,117.912705 -56.255336,118.084619 -51.407674,120.274233 -51.025389,120.448053 -51.127494,121.011976 -51.226405,121.628063 -51.320077,122.296393 -51.406464,123.01698 -51.483514,123.789781 -51.549179,124.614688 -51.601408,125.491536 -51.638155,126.420097 -51.657375,127.40008 -51.657034,128.431137 -51.6351,129.512856 -51.589553,130.644767 -51.518383,131.826338 -51.419592,133.056976 -51.291196,134.336029 -51.131227,135.662787 -50.937733,137.036478 -50.70878,138.456274 -50.645777,138.818323 -50.61339,139.000404 -50.605201,139.046033 -50.601092,139.068864 -50.599034,139.080284 -50.598138,139.082092 -46.566003,140.483477 -46.564179,140.482615 -46.555482,140.474933 -46.538099,140.459571 -46.503376,140.428856 -46.365045,140.306109 -46.091082,140.061173 -45.030933,139.08941 -44.027194,138.131823 -43.07886,137.19026 -42.184881,136.266537 -41.344152,135.362433 -40.555521,134.47969 -39.817789,133.62001 -39.129709,132.785059 -38.489987,131.976459 -37.897286,131.195791 -37.350225,130.444592 -36.847382,129.724357 -36.387291,129.036534 -35.968448,128.382525 -35.589311,127.763684 -35.248299,127.181319 -34.943796,126.636685 -34.674152,126.130991 -34.266467,126.231728 -29.105738,127.520571 -28.698559,127.623338 -28.698332,128.19643 -28.685646,128.820278 -28.658478,129.494593 -28.614811,130.219025 -28.552634,130.993165 -28.469951,131.81654 -28.364773,132.688623 -28.235128,133.608822 -28.079057,134.576489 -27.894619,135.590915 -27.679889,136.651335 -27.432964,137.756923 -27.15196,138.906797 -26.835018,140.100018 -26.480302,141.335591 -26.086001,142.612464 -25.650334,143.929529 -25.171547,145.285627 -25.04491,145.630608 -24.980532,145.80398 -24.964326,145.847414 -24.956207,145.869144 -24.952143,145.880013 -24.950939,145.881632 -20.733374,146.540531 -20.731734,146.539356 -20.724548,146.530245 -20.710188,146.512026 -20.681507,146.475605 -20.567316,146.330131 -20.341491,146.040213 -19.471895,144.89477 -18.655269,143.773347 -17.890299,142.677584 -17.175623,141.609079 -16.509838,140.569386 -15.891502,139.560014 -15.319127,138.582423 -14.79119,137.638028 -14.30613,136.728196 -13.862348,135.854242 -13.458211,135.017434 -13.092051,134.218988 -12.762169,133.460066 -12.466835,132.741779 -12.204289,132.065186 -11.972743,131.431289 -11.770382,130.841037 -11.595366,130.295323 -11.176245,130.321647 -5.86832,130.668293 -5.449335,130.696704 -5.346781,131.260546 -5.222907,131.872103 -5.075772,132.530731 -4.903454,133.235724 -4.704049,133.98632 -4.475675,134.7817 -4.216471,135.620988 -3.924602,136.50325 -3.598256,137.427499 -3.235648,138.39269 -2.835024,139.397727 -2.394656,140.441457 -1.91285,141.522677 -1.387944,142.640131 -0.818308,143.79251 -0.20235,144.978458 0.461487,146.196567 1.17472,147.44538 1.360921,147.762206 1.455221,147.921296 1.478922,147.961138 1.490791,147.98107 1.49673,147.991039 1.498204,147.992417 5.765642,147.887651 5.767046,147.886203 5.772489,147.875955 5.783366,147.855464 5.805083,147.814507 5.891463,147.650981 6.061892,147.3254 6.712987,146.043092 7.316251,144.793877 7.873272,143.579132 8.385674,142.400189 8.855115,141.258324 9.283284,140.154764 9.671905,139.090682 10.022729,138.067197 10.337537,137.085375 10.618137,136.146226 10.866362,135.250705 11.084069,134.399709 11.273139,133.594081 11.435472,132.834604 11.572988,132.122004 11.687627,131.45695 11.781342,130.840051 11.856104,130.271856 12.27319,130.22292 17.557711,129.616229 17.975036,129.569371 18.176619,130.105839 18.4077,130.68545 18.670073,131.307222 18.965504,131.970116 19.295728,132.673045 19.662453,133.414866 20.067352,134.194383 20.512065,135.010351 20.998197,135.861476 21.527319,136.74641 22.100961,137.663761 22.720617,138.612087 23.38774,139.589902 24.10374,140.595672 24.869987,141.62782 25.687805,142.684726 26.558476,143.764726 27.483231,144.866118 27.723011,145.144605 27.844203,145.2843 27.874636,145.31927 27.889874,145.336763 27.897497,145.34551 27.899194,145.346603 32.079345,144.481541 32.080469,144.479865 32.083994,144.468809 32.091037,144.446706 32.105092,144.40253 32.160885,144.226208 32.270441,143.875428 32.682108,142.49747 33.052621,141.160612 33.38379,139.86593 33.677448,138.614439 33.935457,137.407103 34.159697,136.244825 34.352074,135.128452 34.51451,134.058773 34.648948,133.036518 34.757347,132.062359 34.841681,131.136907 34.903939,130.260714 34.946119,129.434272 34.970233,128.658015 34.9783,127.932312 34.972347,127.257477 34.954404,126.633758 34.92651,126.061345 35.328155,125.938721 40.419423,124.398192 40.821674,124.277571 41.115808,124.769424 41.446669,125.29846 41.815847,125.86339 42.224894,126.462881 42.675325,127.09555 43.168613,127.759967 43.706193,128.45466 44.289457,129.178109 44.919751,129.928753 45.59838,130.704988 46.326603,131.505169 47.105632,132.327611 47.936629,133.170593 48.820709,134.032353 49.75894,134.911095 50.752333,135.804989 51.801853,136.712169 52.908409,137.630739 53.194061,137.861936 53.338248,137.977747 53.374437,138.006721 53.392553,138.021212 53.401616,138.028458 53.40348,138.02923 57.361992,136.431675 57.362798,136.429825 57.364293,136.418318 57.367277,136.395312 57.373217,136.349336 57.39663,136.165886 57.441792,135.801181 57.600798,134.371861 57.726652,132.99033 57.821324,131.657321 57.886802,130.373507 57.925086,129.139504 57.93819,127.955865 57.928139,126.823083 57.896966,125.74159 57.846713,124.711758 57.779427,123.733899 57.69716,122.80826 57.601966,121.935031 57.495902,121.11434 57.381023,120.346251 57.259381,119.630771 57.133027,118.967843 57.004003,118.357351 56.874349,117.799118 57.247644,117.606748 61.982021,115.181896 62.35627,114.991388 62.733501,115.422817 63.153508,115.884273 63.617625,116.374206 64.127142,116.891024 64.683302,117.433098 65.287299,117.998758 65.940282,118.586299 66.643349,119.193976 67.397547,119.820013 68.203872,120.462599 69.06327,121.119892 69.976632,121.790017 70.944795,122.471071 71.968541,123.161123 73.048599,123.858217 74.185639,124.560367 75.380276,125.26557 76.633066,125.971795 76.95541,126.148272 77.117959,126.236476 77.15874,126.258523 77.179152,126.269546 77.189363,126.275057 77.191335,126.275484 80.800978,123.996782 80.80144,123.994818 80.800857,123.983229 80.799684,123.960061 80.79732,123.913762 80.787601,123.72908 80.766915,123.362172 80.668152,121.92743 80.545302,120.545629 80.400434,119.217137 80.235626,117.942264 80.052955,116.721256 79.854501,115.554298 79.642345,114.441515 79.418566,113.382968 79.185236,112.37866 78.944428,111.428529 78.698204,110.532455 78.44862,109.690257 78.19772,108.901693 77.947539,108.16646 77.700098,107.484198 77.457404,106.854485 77.221447,106.276842 76.994199,105.750731 77.327147,105.494798 81.552466,102.263558 81.886685,102.009287 82.334888,102.366426 82.830541,102.745471 83.374681,103.144659 83.968291,103.562194 84.612304,103.996251 85.307597,104.444972 86.054996,104.906476 86.855269,105.37885 87.70913,105.860159 88.617236,106.348444 89.580187,106.841722 90.598526,107.337991 91.672737,107.835228 92.803245,108.331394 93.990417,108.824433 95.234558,109.312274 96.535915,109.792833 97.894674,110.264014 98.243349,110.380098 98.419035,110.437861 98.463097,110.452272 98.485149,110.459472 98.49618,110.463072 98.498197,110.46314 101.642953,107.576531 101.643058,107.574516 101.640414,107.563218 101.635124,107.540631 101.624531,107.495499 101.581991,107.31552 101.496124,106.958201 101.142765,105.564152 100.775159,104.226492 100.395408,102.945217 100.005611,101.720259 99.607856,100.55149 99.204223,99.438721 98.796782,98.381703 98.387587,97.380125 97.978682,96.433618 97.572091,95.541755 97.169824,94.704046 96.77387,93.919948 96.386199,93.188856 96.008757,92.51011 95.64347,91.882994 95.292237,91.306736 94.956929,90.780508 94.639393,90.303428 94.921291,89.992158 98.501748,86.058385 98.785193,85.748524 99.289963,86.019894 99.845333,86.304345 100.452005,86.599958 101.11063,86.90479 101.821797,87.216878 102.586039,87.534239 103.403831,87.854873 104.275589,88.176762 105.201669,88.497873 106.182368,88.816162 107.217923,89.129572 108.308509,89.436034 109.454242,89.733473 110.655176,90.019805 111.911305,90.292943 113.22256,90.550794 114.588811,90.791263 116.009866,91.012257 116.373665,91.064217 116.556842,91.089682 116.602769,91.095993 116.625752,91.099141 116.637249,91.100713 116.639246,91.100419 119.21804,87.698682 119.217783,87.696681 119.213165,87.686036 119.203927,87.664757 119.185445,87.622241 119.111452,87.45275 118.963164,87.116506 118.366566,85.807954 117.766019,84.55743 117.163591,83.364553 116.561333,82.228881 115.961278,81.149917 115.36544,80.127102 114.775808,79.159822 114.194351,78.247404 113.623011,77.389121 113.063706,76.58419 112.518325,75.831771 111.988728,75.130974 111.476745,74.480852 110.984175,73.880409 110.512783,73.328596 110.064298,72.824313 109.640418,72.366413 109.242798,71.953698 109.464587,71.597096 112.285102,67.087225 112.508665,66.731732 113.053778,66.908611 113.651013,67.089326 114.30072,67.271863 115.00319,67.454194 115.758654,67.634283 116.567281,67.810083 117.429182,67.979542 118.344406,68.140599 119.312941,68.291193 120.334712,68.429256 121.409586,68.552724 122.537367,68.659529 123.717797,68.747609 124.950559,68.814905 126.235272,68.859363 127.571495,68.878936 128.958727,68.871588 130.396406,68.835291 130.763636,68.821458 130.948416,68.813805 130.994732,68.811815 131.017908,68.810808 131.029501,68.810302 131.031413,68.809657 132.961362,65.002125 132.960752,65.000202 132.954307,64.990553 132.941417,64.971265 132.915641,64.932733 132.812574,64.779177 132.60663,64.474815 131.785969,63.293818 130.971783,62.170623 130.166039,61.104483 129.370678,60.0946 128.58761,59.140119 127.818716,58.240132 127.065846,57.393679 126.330814,56.599748 125.615404,55.857274 124.921361,55.165146 124.250395,54.522201 123.604177,53.927228 122.984338,53.378973 122.39247,52.876131 121.830123,52.417356 121.298803,52.001257 120.799973,51.626403 120.335051,51.291318 120.489601,50.900844 122.459521,45.959827 122.616015,45.570128 123.183951,45.646831 123.803856,45.718001 124.475715,45.781594 125.199453,45.835565 125.974932,45.877866 126.801955,45.906456 127.680263,45.919292 128.609537,45.914342 129.589396,45.889577 130.619399,45.842977 131.699046,45.772534 132.827773,45.67625 134.004961,45.552141 135.229928,45.398237 136.501933,45.212586 137.820178,44.993254 139.183805,44.738324 140.591898,44.445903 140.950757,44.36672 141.131201,44.326197 141.176417,44.315968 141.199041,44.310839 141.210357,44.308271 141.212123,44.307295 142.431196,40.216346 142.430252,40.214563 142.422188,40.20622 142.406061,40.189543 142.373819,40.156233 142.24499,40.023549 141.98801,39.76085 140.969662,38.745367 139.968006,37.7856 138.984844,36.880465 138.021943,36.028828 137.08103,35.229508 136.163794,34.481276 135.271882,33.782856 134.406901,33.132928 133.570414,32.530128 132.763941,31.973049 131.988955,31.460242 131.246885,30.990218 130.539113,30.561449 129.866971,30.17237 129.231743,29.821379 128.634664,29.506838 128.076918,29.227077 127.559635,28.980392 127.641981,28.568598 128.69799,23.355242 128.782386,22.943862 129.354891,22.917923 129.977541,22.877262 130.649959,22.819868 131.371702,22.743743 132.142272,22.646898 132.961109,22.527357 133.827595,22.383159 134.741051,22.21236 135.700741,22.013032 136.705872,21.783268 137.755589,21.521178 138.848986,21.224899 139.985095,20.89259 141.162895,20.522433 142.38131,20.11264 143.639206,19.66145 144.9354,19.167132 146.268651,18.627986 146.607604,18.485999 146.777912,18.413907 146.820575,18.39577 146.84192,18.386683 146.852595,18.382136 146.854159,18.38086 147.323174,14.137981 147.321927,14.136395 147.312502,14.129626 147.293657,14.116097 147.255986,14.089079 147.105535,13.98153 146.805778,13.768939 145.622474,12.951608 144.465542,12.186118 143.336562,11.471079 142.23707,10.805061 141.168553,10.186593 140.132455,9.614163 139.130169,9.086225 138.16304,8.60119 137.232361,8.157437 136.339378,7.753312 135.485281,7.387125 134.671211,7.057156 133.898253,6.761655 133.16744,6.498845 132.479749,6.266918 131.836102,6.064045 131.237365,5.888369 130.684348,5.738013 130.691842,5.318133 z">
  </path>
</svg>